<?xml version="1.0" encoding="utf-8"?>
<!-- Generator: Adobe Illustrator 24.3.0, SVG Export Plug-In . SVG Version: 6.00 Build 0)  -->
<svg version="1.1" xmlns="http://www.w3.org/2000/svg" xmlns:xlink="http://www.w3.org/1999/xlink" x="0px" y="0px"
	 viewBox="0 0 428 85" style="enable-background:new 0 0 428 85;" xml:space="preserve">
<style type="text/css">
	.st0{fill:#FFFFFF;}
	.st1{fill:#FF0048;}
	.st2{fill:#005FB2;}
</style>
<g id="Laag_2">
</g>
<g id="Laag_1">
	<path class="st0" d="M421.1,11.8c-2.6-4.1-7-6.6-11.9-6.6H41.4c-5.1,0-9.6,2.8-11.8,7.4l-23.3,47C4.1,64,4.3,69,6.9,73.2
		c2.6,4.1,7,6.6,11.9,6.6h367.8c5.1,0,9.6-2.8,11.8-7.4l23.3-47C423.9,21.1,423.7,16,421.1,11.8z"/>
	<g>
		<g>
			<path class="st1" d="M386.7,83.2H18.8C12.8,83.2,7.2,80.1,4,75S0.6,63.5,3.2,58.1l23.3-47c2.8-5.7,8.5-9.2,14.9-9.2h367.8
				c6.1,0,11.6,3.1,14.8,8.2c3.2,5.1,3.5,11.5,0.8,16.9l-23.3,47C398.7,79.6,393,83.2,386.7,83.2z M41.4,8.2c-3.9,0-7.4,2.2-9.2,5.7
				l-23.3,47c-1.7,3.4-1.5,7.4,0.5,10.7c2,3.3,5.5,5.2,9.4,5.2h367.8c3.9,0,7.4-2.2,9.2-5.7l23.3-47c1.7-3.4,1.5-7.4-0.5-10.7
				c-2-3.3-5.5-5.2-9.4-5.2H41.4z"/>
		</g>
		<g>
			<polygon class="st2" points="97.7,10 82.5,10 50.4,75 65.6,75 			"/>
			<polygon class="st2" points="78.4,10 68.6,10 36.5,75 46.3,75 			"/>
			<polygon class="st2" points="22.2,75 30.4,75 62.5,10 54.3,10 			"/>
			<path class="st2" d="M417.1,14.4c-1.7-2.7-4.6-4.4-7.9-4.4H100.7L68.6,75h318c3.2,0,6.1-1.8,7.6-4.7l23.3-47
				C418.9,20.5,418.8,17.1,417.1,14.4z"/>
			<path class="st2" d="M12.4,72.5L43.2,10h-1.9c-3.2,0-6.1,1.8-7.6,4.7l-23.3,47c-1.4,2.9-1.3,6.2,0.4,9
				C11.4,71.3,11.9,71.9,12.4,72.5z"/>
		</g>
		<g>
			<path class="st0" d="M135.8,30.4c2.3,0,4.5,0,6.7,0c-0.1,2.5-0.3,13.9-0.3,17c0,0.6-0.1,1.3-0.2,1.9c-0.6,3.2-2.4,5.1-5.3,5.9
				c-3.3,1-6.6,0.9-9.8,0c-3.4-1-5.2-3.4-5.6-7.4c-0.1-1.2-0.2-10.5-0.2-13.9c0-1.1-0.1-2.3-0.2-3.5c2.6,0,5.2,0,7.8,0
				c-0.1,0.9-0.2,1.8-0.2,2.7c0,4.6-0.1,9.1-0.1,13.7c0,2.3,1.1,3.5,3.2,3.6c0.7,0.1,1.3,0,2-0.1c1.4-0.3,2.1-1.2,2.4-2.7
				c0.1-0.5,0.1-9.5,0.1-13.6C136,32.8,135.9,31.6,135.8,30.4z"/>
			<path class="st0" d="M163.7,35.9c-2.1-0.1-4.1-0.2-6.3-0.4c0.1,6.6-0.2,13.5,0.3,19.9c-2.5,0-5,0-7.4,0
				c0.5-6.4,0.1-13.5,0.3-19.9c-1.1,0-6.3,0.4-6.3,0.4c0-2,0-3.5,0-5.5c6.5,0,13,0,19.5,0C163.7,32.4,163.7,33.9,163.7,35.9z"/>
			<path class="st0" d="M225.4,30.4c-0.5,6.4-0.3,19.2-0.3,19.2c2.9,0,8.8,0,8.8,0c0,2.2-0.1,3.7-0.1,5.8c-5.5,0-11.1,0-16.5,0
				c0.3-8.4,0.3-16.7,0-25.1C219.9,30.4,222.7,30.4,225.4,30.4z"/>
			<path class="st0" d="M186.3,37.5c-1.1-3.6-3.4-5.9-6.9-7c-2.3-0.7-4.7-0.8-7.1-0.4c-4,0.7-6.9,3-8.3,7.1
				c-1.3,3.7-1.3,7.5-0.2,11.2c1,3.2,3,5.3,6,6.5c1.7,0.7,3.4,0.9,5.2,0.9c0.4,0,0.9,0,1.3,0c0.3,0,0.6-0.1,0.9-0.1
				c4.4-0.7,7.5-3.1,8.9-7.6C187.4,44.6,187.4,41.1,186.3,37.5z M178.9,47c-0.1,0.3-0.2,0.6-0.3,0.9c-1,2.8-3.3,3-5.2,2.4
				c-1-0.4-1.6-1.3-1.9-2.3c-0.1-0.3-0.2-0.6-0.3-0.9c-0.3-1.3-0.3-2.7-0.4-4.1c0-1.4,0.1-2.7,0.4-4c0.1-0.3,0.2-0.6,0.3-0.9
				c0.9-2.7,3.1-3.1,4.9-2.5c1.2,0.3,1.9,1.2,2.2,2.4c0.3,1,0.5,2.1,0.6,3.1C179.4,43,179.4,45,178.9,47z"/>
			<path class="st0" d="M112.1,30.4c-3.2,0-6.5,0-9.7,0c-2.7,8.4-5.3,16.8-8.2,25.1c2.5,0,5,0,7.5,0c0-0.4,1-4.4,1.3-6
				c0.1-0.3,7-0.2,7.1-0.1c0.5,2,1.3,4,1.4,6.1c2.9,0,5.8,0,8.7,0C118.4,51.4,112.1,30.4,112.1,30.4z M104.6,44.1
				c0.7-2.8,1.4-5.6,2.1-8.2c0.7,2.6,1.4,5.4,2.1,8.2C107.4,44.1,106,44.1,104.6,44.1z"/>
			<path class="st0" d="M252.9,30.4c-3.1,0-6.4,0-9.5,0c-2.7,8.4-5.1,16.8-8,25.1c2.4,0,4.9,0,7.4,0c0-0.3,0-0.5,0-0.8
				c0.4-1.8,0.8-3.6,1.3-5.4c0-0.1,0.2-0.2,0.3-0.2c2,0,4.1,0,6.1,0c0.1,0,0.3,0.2,0.4,0.3c0.5,2,1.2,4,1.4,6.1c2.8,0,5.7,0,8.5,0
				C259.1,51.4,254.2,34.6,252.9,30.4z M245.6,44.1c0.7-2.8,1.4-5.6,2-8.2c0.6,2.6,1.3,5.4,2,8.2C248.3,44.1,246.9,44.1,245.6,44.1z
				"/>
			<path class="st0" d="M205.2,43.2l0.3,7.2c-0.6,0-1.6,0-2.1,0c-2.3-0.2-3.9-1.3-4.6-3.6c-0.8-2.4-0.8-4.9,0-7.4
				c0.7-2.2,2.3-3.5,4.5-3.8c2.6-0.4,5.2-0.3,7.4,1.7l1.1-5.9c-0.5-0.2-0.9-0.4-1.4-0.6c-3.6-1.1-7.3-1.3-10.9-0.5
				c-4.6,1-7.5,3.9-8.5,8.6c-0.5,2.3-0.5,4.6-0.2,6.9c0.6,4.8,3.4,8.1,8,9.3c2.8,0.8,5.6,0.7,8.5,0.3c1.7-0.2,3.3-0.7,4.8-1.6
				c0.3-0.2,0.5-0.4,0.5-0.9c0-3.3-0.1-6.6,0.3-10C210,43.2,207.8,43.2,205.2,43.2z"/>
			<path class="st0" d="M262.6,48.5l-0.2,6c4.1,1.9,8.3,1.9,12.6,0.7c2.9-0.8,4.6-2.8,5-5.9c0.4-3.2-0.6-5.8-3.3-7.5
				c-1.1-0.7-2.1-1.3-3.3-1.8c0,0-4-1.5-3.7-3.2s3.8-2.9,8.4,0.2l0.3-5.6c-3.4-1.5-7-1.7-10.7-0.9c-4.2,0.9-6.3,4.2-5.6,8.7
				c0.4,2.2,1.6,3.8,3.5,4.9c0,0,2.2,1.2,4,1.7c2.3,0.7,3.1,1.7,2.6,3.3C271.9,50.3,268,52.4,262.6,48.5z"/>
		</g>
		<path class="st0" d="M353.4,31.3c0-10.6-10.4-10.6-14.3-10.6h-12c-0.3,0-0.6,0.2-0.7,0.5l-8.5,36c-0.1,0.4,0.2,0.9,0.7,0.9h11.7
			c0.3,0,0.6-0.2,0.7-0.6l2.4-12.1l0.2,0l4.1,12.2c0.1,0.3,0.4,0.5,0.7,0.5h11.1c0.5,0,0.8-0.5,0.7-0.9l-5.2-14
			C348.9,41.3,353.4,38.1,353.4,31.3z M336.9,29.9h1.2c1,0,1.8,0.3,2.2,0.8c0.5,0.5,0.5,1.2,0.4,1.7c-0.3,2.6-1.1,4-4.6,4h-0.8
			L336.9,29.9z"/>
		<path class="st0" d="M318.1,24.2c-3-3.2-8.1-3.5-13.1-3.5h-12c-0.3,0-0.6,0.2-0.7,0.5l-8.5,36c-0.1,0.4,0.2,0.9,0.7,0.9h11.7
			c0.3,0,0.6-0.2,0.7-0.6l2.1-10.5h2c11.9,0,19-5.5,19.4-15.2C320.7,28.6,319.9,26,318.1,24.2z M307.9,32.7c-0.3,2.8-1.3,4.4-5,4.4
			h-1l1.7-7.2h1.4c1.1,0,2,0.3,2.5,0.9C307.9,31.3,308,32.1,307.9,32.7z"/>
		<path class="st0" d="M375.2,20c-5.5,0-10.7,2.1-14.5,5.9c-4.2,4.2-6.4,10-6.4,17c0,10.3,5.9,16.2,16.1,16.2
			c10.4,0,20.9-7.9,20.9-23.1C391.3,25.7,385.5,20,375.2,20z M378.4,36.5c0,7.6-4.5,12.4-7.6,12.4c-1.1,0-3.7-0.6-3.7-6.6
			c0-7.6,4.5-12.4,7.6-12.4C375.8,29.9,378.4,30.5,378.4,36.5z"/>
		<path class="st1" d="M356.1,42.9c0-13.8,9.3-21.1,19.1-21.1c8.5,0,14.3,4.1,14.3,14.1c0,13.8-9.3,21.3-19.1,21.3
			C361.9,57.2,356.1,52.9,356.1,42.9z M380.2,36.5c0-5.3-2-8.4-5.5-8.4c-4.2,0-9.3,5.7-9.3,14.2c0,5.3,2,8.4,5.5,8.4
			C375,50.7,380.2,45,380.2,36.5z"/>
		<path class="st1" d="M305,22.5h-11.1l-8,33.8h9.5l2.2-11h3.4c9.4,0,17.2-3.7,17.7-13.5C319.2,23,311.7,22.5,305,22.5z M309.6,32.9
			c-0.4,3.5-2,6-6.8,6h-3.2l2.5-10.8h2.8C308.3,28.1,310,30.2,309.6,32.9z"/>
		<path class="st1" d="M351.6,31.3c0-7.5-5.8-8.8-12.6-8.8h-11.1l-8,33.8h9.5l2.5-12.7l2.9,0l4.2,12.7h8.7l-5.3-14.1
			C347.3,40.4,351.6,37.6,351.6,31.3z M342.5,32.5c-0.4,3.3-1.8,5.6-6.3,5.6h-3l2.3-10h2.6C341.2,28.1,342.7,30.1,342.5,32.5z"/>
	</g>
</g>
</svg>
